<?xml version="1.0" encoding="utf-8"?>
<!-- Generator: Adobe Illustrator 23.0.0, SVG Export Plug-In . SVG Version: 6.00 Build 0)  -->
<svg version="1.1" id="chat" xmlns="http://www.w3.org/2000/svg" xmlns:xlink="http://www.w3.org/1999/xlink" x="0px" y="0px"
	 viewBox="0 0 164 164" style="enable-background:new 0 0 164 164;" xml:space="preserve">
<style type="text/css">
	.st0{opacity:0.4;fill:#FFDEA2;}
	.st1{opacity:0.4;fill:#26DEEB;}
	.st2{opacity:0.4;fill:#E86436;}
	.st3{opacity:0.4;fill:#5D038E;}
	.st4{opacity:0.4;fill:#0FAA00;}
	.st5{opacity:0.4;fill:#5C128D;}
</style>
<circle class="st0" cx="47.7" cy="119.3" r="9.9"/>
<path class="st1" d="M47.7,139.2c-8.7,0-16.4,3.9-20.9,9.9h41.8C64.1,143,56.3,139.2,47.7,139.2z"/>
<circle class="st0" cx="122.3" cy="119.3" r="9.9"/>
<path class="st2" d="M122.3,139.2c-8.7,0-16.4,3.9-20.9,9.9h41.8C138.7,143,130.9,139.2,122.3,139.2z"/>
<path class="st3" d="M155.9,152.7c-2.7-9.2-9.6-16.5-18.6-20.4c3-3.5,4.9-8,4.9-13c0-11-8.9-19.9-19.9-19.9s-19.9,8.9-19.9,19.9
	c0,5,1.9,9.5,4.9,13c-9,3.9-16,11.2-18.6,20.4c-0.4,1.5-0.1,3.1,0.8,4.4c0.9,1.2,2.4,2,4,2h57.7c1.6,0,3-0.7,4-2
	C156,155.8,156.3,154.2,155.9,152.7z M112.3,119.3c0-5.5,4.5-9.9,9.9-9.9c5.5,0,9.9,4.5,9.9,9.9c0,5.5-4.5,9.9-9.9,9.9
	S112.3,124.8,112.3,119.3z M101.3,149.1c4.5-6.1,12.3-9.9,20.9-9.9s16.4,3.9,20.9,9.9H101.3z"/>
<path class="st4" d="M80.4,14.9H34.9c-9.4,0-17,7.6-17,17v30.7c0,9.4,7.6,17,17,17c2,0,3.7,1.2,4.5,2.9v0l8.3,6.7v-4.6
	c0-2.7,2.2-5,4.9-5l29.8-0.2c8.3-0.8,14.9-8,14.9-16.8V31.9C97.4,22.5,89.8,14.9,80.4,14.9z M41.3,53.2c-0.9,0.9-2.2,1.4-3.5,1.4
	c-0.6,0-1.3-0.2-1.9-0.4c-0.6-0.2-1.1-0.6-1.6-1c-0.9-0.9-1.4-2.2-1.4-3.5c0-1.3,0.5-2.6,1.4-3.5c0.2-0.2,0.5-0.4,0.7-0.6
	c0.3-0.2,0.6-0.3,0.9-0.4c0.3-0.2,0.6-0.2,0.9-0.3c1-0.2,2-0.1,2.9,0.3c0.6,0.2,1.1,0.6,1.6,1c0.4,0.5,0.8,1,1,1.6
	c0.2,0.6,0.4,1.2,0.4,1.9C42.7,51,42.2,52.3,41.3,53.2z M61.2,53.2c-0.5,0.4-1,0.8-1.6,1c-0.6,0.2-1.2,0.4-1.9,0.4
	c-1.3,0-2.6-0.5-3.5-1.4c-0.9-0.9-1.4-2.2-1.4-3.5c0-0.6,0.2-1.3,0.4-1.9c0.2-0.6,0.6-1.1,1-1.6c0.5-0.4,1-0.8,1.6-1
	c1.2-0.5,2.6-0.5,3.8,0c0.6,0.2,1.1,0.6,1.6,1c0.9,0.9,1.4,2.2,1.4,3.5C62.6,51,62.1,52.3,61.2,53.2z M81.1,53.2
	c-0.9,0.9-2.2,1.4-3.5,1.4h0c-1.3,0-2.6-0.5-3.5-1.4c-0.9-0.9-1.4-2.2-1.4-3.5c0-0.6,0.2-1.3,0.4-1.9c0.2-0.6,0.6-1.1,1-1.6
	c0.2-0.2,0.5-0.4,0.7-0.6c0.3-0.2,0.6-0.3,0.9-0.4c0.3-0.2,0.6-0.2,0.9-0.3c1.6-0.3,3.4,0.2,4.5,1.3c0.4,0.5,0.8,1,1,1.6
	c0.2,0.6,0.4,1.2,0.4,1.9C82.5,51,82,52.3,81.1,53.2z"/>
<path class="st5" d="M80.4,4.9H34.9C20,4.9,7.9,17,7.9,31.9v30.7c0,13.9,10.6,25.4,24.2,26.8L45,99.6c-9.7,1.3-17.2,9.6-17.2,19.7
	c0,5,1.9,9.5,4.9,13c-9,3.9-16,11.2-18.6,20.4c-0.4,1.5-0.1,3.1,0.8,4.4c0.9,1.2,2.4,2,4,2h57.7c1.6,0,3-0.7,4-2
	c0.9-1.3,1.2-2.9,0.8-4.4c-2.7-9.2-9.6-16.5-18.6-20.4c3-3.5,4.9-8,4.9-13c0-7.6-4.3-14.2-10.5-17.5c0.4-0.7,0.6-1.5,0.6-2.3v-10
	L83,89.2c13.9-1.3,24.4-12.8,24.4-26.7V31.9C107.3,17,95.3,4.9,80.4,4.9z M68.6,149.1H26.8c4.5-6.1,12.3-9.9,20.9-9.9
	S64.1,143,68.6,149.1z M47.7,129.2c-5.5,0-9.9-4.5-9.9-9.9c0-5.5,4.5-9.9,9.9-9.9c5.5,0,9.9,4.5,9.9,9.9
	C57.6,124.8,53.2,129.2,47.7,129.2z M97.4,62.5c0,8.7-6.6,16-14.9,16.8l-29.8,0.2c-2.7,0-4.9,2.2-4.9,5v4.6l-8.3-6.7v0
	c-0.8-1.7-2.5-2.9-4.5-2.9c-9.4,0-17-7.6-17-17V31.9c0-9.4,7.6-17,17-17h45.6c9.4,0,17,7.6,17,17V62.5z"/>
<path class="st5" d="M41.3,46.2c-0.5-0.4-1-0.8-1.6-1c-0.9-0.4-1.9-0.5-2.9-0.3c-0.3,0.1-0.6,0.2-0.9,0.3c-0.3,0.1-0.6,0.2-0.9,0.4
	c-0.2,0.2-0.5,0.4-0.7,0.6c-0.9,0.9-1.4,2.2-1.4,3.5c0,1.3,0.5,2.6,1.4,3.5c0.5,0.4,1,0.8,1.6,1c0.6,0.2,1.2,0.4,1.9,0.4
	c1.3,0,2.6-0.5,3.5-1.4c0.9-0.9,1.4-2.2,1.4-3.5c0-0.6-0.2-1.3-0.4-1.9C42.1,47.2,41.7,46.7,41.3,46.2z"/>
<path class="st5" d="M59.5,45.1c-1.2-0.5-2.6-0.5-3.8,0c-0.6,0.2-1.1,0.6-1.6,1c-0.4,0.5-0.8,1-1,1.6c-0.2,0.6-0.4,1.2-0.4,1.9
	c0,1.3,0.5,2.6,1.4,3.5c0.9,0.9,2.2,1.4,3.5,1.4c0.6,0,1.3-0.1,1.9-0.4c0.6-0.2,1.1-0.6,1.6-1c0.9-0.9,1.4-2.2,1.4-3.5
	c0-1.3-0.5-2.6-1.4-3.5C60.7,45.7,60.2,45.4,59.5,45.1z"/>
<path class="st5" d="M81,46.2c-1.1-1.1-2.9-1.6-4.5-1.3c-0.3,0.1-0.6,0.2-0.9,0.3c-0.3,0.1-0.6,0.2-0.9,0.4
	c-0.2,0.2-0.5,0.4-0.7,0.6c-0.4,0.5-0.8,1-1,1.6c-0.2,0.6-0.4,1.2-0.4,1.9c0,1.3,0.5,2.6,1.4,3.5c0.9,0.9,2.2,1.4,3.5,1.4h0
	c1.3,0,2.6-0.5,3.5-1.4c0.9-0.9,1.4-2.2,1.4-3.5c0-0.6-0.2-1.3-0.4-1.9C81.8,47.2,81.5,46.7,81,46.2z"/>
</svg>
