<svg id="chat" enable-background="new 0 0 300 300" height="512" viewBox="0 0 300 300" width="512" xmlns="http://www.w3.org/2000/svg"><circle cx="94.79" cy="210" fill="#ffdea2" r="24"/><path d="m94.79 242c-17.648 0-32-14.352-32-32s14.352-32 32-32 32 14.352 32 32-14.352 32-32 32zm0-48c-8.82 0-16 7.18-16 16s7.18 16 16 16 16-7.18 16-16-7.18-16-16-16z" fill="#5d038e"/><path d="m141.21 266c-5.346-18.394-24.071-32-46.42-32s-41.074 13.606-46.42 32z" fill="#26deeb"/><path d="m141.212 274h-92.844c-2.516 0-4.883-1.188-6.398-3.195-1.508-2.016-1.984-4.617-1.281-7.039 6.46-22.235 28.71-37.766 54.101-37.766s47.641 15.531 54.102 37.766c.703 2.422.227 5.023-1.281 7.039-1.516 2.007-3.883 3.195-6.399 3.195zm-80.078-16h67.312c-7.188-9.773-19.734-16-33.656-16s-26.469 6.227-33.656 16z" fill="#5d038e"/><circle cx="214.79" cy="210" fill="#ffdea2" r="24"/><path d="m214.79 242c-17.648 0-32-14.352-32-32s14.352-32 32-32 32 14.352 32 32-14.352 32-32 32zm0-48c-8.82 0-16 7.18-16 16s7.18 16 16 16 16-7.18 16-16-7.18-16-16-16z" fill="#5d038e"/><path d="m261.21 266c-5.346-18.394-24.071-32-46.42-32s-41.074 13.606-46.42 32z" fill="#e86436"/><path d="m261.212 274h-92.844c-2.516 0-4.883-1.188-6.398-3.195-1.508-2.016-1.984-4.617-1.281-7.039 6.46-22.235 28.71-37.766 54.101-37.766s47.641 15.531 54.102 37.766c.703 2.422.227 5.023-1.281 7.039-1.516 2.007-3.883 3.195-6.399 3.195zm-80.078-16h67.312c-7.188-9.773-19.734-16-33.656-16s-26.469 6.227-33.656 16z" fill="#5d038e"/><path d="m74.128 34h73.324c19.517 0 35.338 15.821 35.338 35.338v49.324c0 18.373-14.074 33.295-32 35.002l-48 .336v24l-30-24h1.338c-19.517 0-35.338-15.821-35.338-35.338v-49.324c0-19.517 15.821-35.338 35.338-35.338z" fill="#0faa00"/><g fill="#5c128d"><path d="m102.79 186c-1.781 0-3.555-.594-5-1.75l-28.086-22.477c-21.828-2.219-38.914-20.703-38.914-43.109v-49.328c0-23.898 19.438-43.336 43.336-43.336h73.328c23.898 0 43.336 19.438 43.336 43.336v49.328c0 22.367-16.867 40.836-39.242 42.961l-40.758.312v16.063c0 3.078-1.766 5.875-4.531 7.211-1.102.531-2.289.789-3.469.789zm-21.406-35.367 13.406 10.719v-7.352c0-4.398 3.547-7.969 7.945-8l48-.336c13.414-1.305 24.055-12.93 24.055-27v-49.328c0-15.07-12.266-27.336-27.336-27.336h-73.328c-15.07 0-27.336 12.266-27.336 27.336v49.328c0 15.07 12.266 27.336 27.336 27.336 3.211 0 5.984 1.898 7.258 4.633z"/><path d="m78.79 106c-1.039 0-2.078-.242-3.039-.641s-1.844-.961-2.641-1.68c-1.523-1.523-2.32-3.523-2.32-5.68 0-2.078.875-4.164 2.32-5.68.398-.32.797-.719 1.195-.961.484-.32.961-.562 1.445-.719.477-.242.961-.398 1.438-.484 1.602-.32 3.203-.156 4.641.484.961.398 1.836.961 2.641 1.68.719.797 1.281 1.602 1.68 2.641.398.961.641 2 .641 3.039 0 2.156-.805 4.156-2.32 5.68-1.525 1.516-3.525 2.321-5.681 2.321z"/><path d="m110.79 106c-2.164 0-4.164-.805-5.68-2.32-1.523-1.523-2.32-3.523-2.32-5.68 0-1.039.242-2.078.641-3.039.398-1.039.961-1.844 1.68-2.641.797-.719 1.602-1.281 2.641-1.68 1.914-.805 4.156-.805 6.078 0 1.039.398 1.836.961 2.641 1.68 1.438 1.516 2.32 3.602 2.32 5.68 0 2.156-.805 4.156-2.32 5.68-.805.719-1.68 1.281-2.641 1.68s-2.001.64-3.04.64z"/><path d="m142.79 106c-2.164 0-4.164-.805-5.68-2.32-1.523-1.523-2.32-3.523-2.32-5.68 0-1.039.242-2.078.641-3.039.398-1.039.961-1.844 1.68-2.641.398-.32.797-.719 1.195-.961.484-.32.961-.562 1.445-.719.477-.242.961-.398 1.438-.484 2.641-.477 5.438.32 7.281 2.164.719.797 1.281 1.602 1.68 2.641.398.961.641 2 .641 3.039 0 2.156-.805 4.156-2.32 5.68-1.525 1.515-3.525 2.32-5.681 2.32z"/></g></svg>